HIERARCHY
ROOT root
{
	OFFSET	0	13.1	24.9
	CHANNELS 6  Xposition Yposition Zposition Xrotation Yrotation Zrotation
	JOINT spine_1
	{
		OFFSET	0	9.99999	0
		CHANNELS 3  Xrotation Yrotation Zrotation
		JOINT spine_2
		{
			OFFSET	0	112	-10
			CHANNELS 3  Xrotation Yrotation Zrotation
			JOINT spine_3
			{
				OFFSET	0	206.5	19.3
				CHANNELS 3  Xrotation Yrotation Zrotation
				JOINT spine_4
				{
					OFFSET	0	110.4	14.6
					CHANNELS 3  Xrotation Yrotation Zrotation
					JOINT neck_1
					{
						OFFSET	0	71.8	-50.3
						CHANNELS 3  Xrotation Yrotation Zrotation
						JOINT neck_2
						{
							OFFSET	0	86.2	-25.8
							CHANNELS 3  Xrotation Yrotation Zrotation
							JOINT head_ee
							{
								OFFSET	0	179.8	-8.7
								CHANNELS 3  Xrotation Yrotation Zrotation
								End Site
								{
									OFFSET	1	0	0
								}
							}
						}
					}
					JOINT left_clavicle
					{
						OFFSET	-43.2	22.4	-70.8
						CHANNELS 3  Xrotation Yrotation Zrotation
						JOINT left_shoulder
						{
							OFFSET	-93.9	-5.79999	48.7
							CHANNELS 3  Xrotation Yrotation Zrotation
							JOINT left_elbow
							{
								OFFSET	-291.4	-30.8	15.2
								CHANNELS 3  Xrotation Yrotation Zrotation
								JOINT left_lowarm_twist
								{
									OFFSET	-110.7	-3.89999	13.6
									CHANNELS 3  Xrotation Yrotation Zrotation
									JOINT left_hand
									{
										OFFSET	-110.7	-3.89999	13.6
										CHANNELS 3  Xrotation Yrotation Zrotation
										JOINT left_ee
										{
											OFFSET	-80.8	-5.10001	12.1
											CHANNELS 3  Xrotation Yrotation Zrotation
											End Site
											{
												OFFSET	1	0	0
											}
										}
									}
								}
							}
						}
					}
					JOINT right_clavicle
					{
						OFFSET	43.2	22.4	-70.8
						CHANNELS 3  Xrotation Yrotation Zrotation
						JOINT right_shoulder
						{
							OFFSET	93.9	-5.79999	48.7
							CHANNELS 3  Xrotation Yrotation Zrotation
							JOINT right_elbow
							{
								OFFSET	291.4	-30.8	15.2
								CHANNELS 3  Xrotation Yrotation Zrotation
								JOINT right_lowarm_twist
								{
									OFFSET	110.7	-3.89999	13.6
									CHANNELS 3  Xrotation Yrotation Zrotation
									JOINT right_hand
									{
										OFFSET	110.7	-3.89999	13.6
										CHANNELS 3  Xrotation Yrotation Zrotation
										JOINT right_ee
										{
											OFFSET	80.8	-5.10001	12.1
											CHANNELS 3  Xrotation Yrotation Zrotation
											End Site
											{
												OFFSET	1	0	0
											}
										}
									}
								}
							}
						}
					}
				}
			}
		}
	}
	JOINT left_hip
	{
		OFFSET	-82.8	-127.5	0.300001
		CHANNELS 3  Xrotation Yrotation Zrotation
		JOINT left_knee
		{
			OFFSET	-28.2	-396.7	2.2
			CHANNELS 3  Xrotation Yrotation Zrotation
			JOINT left_ankle
			{
				OFFSET	-11.7	-411.3	35.4
				CHANNELS 3  Xrotation Yrotation Zrotation
				JOINT left_toes
				{
					OFFSET	0	-60	-88.6
					CHANNELS 3  Xrotation Yrotation Zrotation
					JOINT left_foot_ee
					{
						OFFSET	-22.5	-16.5	-42.2
						CHANNELS 3  Xrotation Yrotation Zrotation
						End Site
						{
							OFFSET	1	0	0
						}
					}
				}
			}
		}
	}
	JOINT right_hip
	{
		OFFSET	82.8	-127.5	0.300001
		CHANNELS 3  Xrotation Yrotation Zrotation
		JOINT right_knee
		{
			OFFSET	28.2	-396.7	2.2
			CHANNELS 3  Xrotation Yrotation Zrotation
			JOINT right_ankle
			{
				OFFSET	11.7	-411.3	35.4
				CHANNELS 3  Xrotation Yrotation Zrotation
				JOINT right_toes
				{
					OFFSET	0	-60	-88.6
					CHANNELS 3  Xrotation Yrotation Zrotation
					JOINT right_foot_ee
					{
						OFFSET	22.5	-16.5	-42.2
						CHANNELS 3  Xrotation Yrotation Zrotation
						End Site
						{
							OFFSET	1	0	0
						}
					}
				}
			}
		}
	}
}
MOTION
Frames: 6
Frame Time: 0.02
2448.29134326 748.632 -1450.06283015 -36.9916190365 81.794596624 29.5278499893 2.88896 0.364761 2.32168 2.89193 0.216329 2.34017 2.89997 -0.161971 2.34456 2.89236 0.210237 2.34073 -10.4859 16.9006 1.29493 -10.8921 31.0644 5.80238 -0.0 0.0 -0.0 -4.33935 22.0005 -3.59282 -21.45 -26.1765 69.8087 0.591648 -16.3352 0.084917 -57.8556 -5.01734 5.02943 1.57757 5.59953 12.7872 -0.0 0.0 -0.0 12.103 17.8182 -24.3078 1.95816 18.575 -70.8276 2.76511 53.8585 -1.4048 -13.4148 0.660841 -1.57889 3.87386 1.82392 -26.1336 0.0 0.0 0.0 10.7091 21.2089 -1.22903 -33.3868 -0.100487 5.05098 29.96 17.1072 -3.95559 -40.173 0.0 0.0 -0.0 0.0 -0.0 9.99539 11.8077 0.501975 -1.48164 -0.0581646 -0.219933 23.6454 6.26833 3.25596 -32.283 0.0 0.0 0.0 0.0 0.0 
2441.26449779 747.699 -1441.18358546 -48.166890015 82.9939924687 40.7852718657 2.84828 0.61031 2.35759 2.85126 0.459097 2.39162 2.86975 0.0683234 2.4343 2.86176 0.451808 2.39301 -10.7278 17.1614 1.36753 -11.1777 31.5441 6.02454 -0.0 0.0 -0.0 -4.73752 22.2845 -4.09219 -21.2996 -25.7375 70.5257 0.553335 -15.3288 0.0744643 -57.0574 -4.91923 5.00018 1.71044 5.38466 13.6024 -0.0 0.0 -0.0 11.7957 16.2556 -23.6817 2.70288 19.4538 -71.3074 3.10576 56.9647 -1.68534 -12.3712 0.596312 -1.46197 4.07978 3.27487 -27.0599 0.0 0.0 0.0 11.4071 20.3979 -1.18983 -30.7418 0.0149409 4.66155 28.6512 17.7767 -3.81832 -40.1337 0.0 0.0 -0.0 0.0 -0.0 9.47054 11.9196 0.765975 -0.720454 -0.0289941 -0.10676 24.5351 7.58465 3.38071 -32.5764 0.0 0.0 0.0 0.0 0.0 
2434.3306922 746.351 -1425.26008005 -75.2439631253 84.5244096676 68.3093741614 2.97967 0.444021 2.30164 2.98257 0.296703 2.32521 2.99379 -0.0763306 2.34281 2.98625 0.294528 2.32548 -9.13671 15.9723 -1.16113 -9.37231 30.7888 2.76817 -0.0 0.0 -0.0 -5.12814 22.7838 -4.51903 -21.0554 -25.578 71.1179 0.517321 -14.3738 0.0652331 -56.668 -4.87152 4.98542 1.95938 5.34754 15.2791 -0.0 0.0 -0.0 12.0002 16.9337 -24.118 3.09943 19.678 -70.71 3.05046 56.493 -1.63911 -12.3373 0.594252 -1.45816 4.19389 3.76322 -27.7101 0.0 0.0 0.0 11.0101 19.0337 -0.805911 -18.0381 0.31383 2.7389 31.3534 16.5321 -4.09981 -40.1466 0.0 0.0 -0.0 0.0 -0.0 9.90502 11.4631 0.955851 -3.23542 -0.119626 -0.482059 25.3264 6.58441 3.45951 -32.8527 0.0 0.0 0.0 0.0 0.0 
2431.68091293 745.311 -1414.11821449 -98.7378918108 84.0658796896 92.0253502807 3.14679 0.400265 2.35073 3.14983 0.249914 2.37142 3.15915 -0.123032 2.38137 3.15132 0.254497 2.37093 -10.0682 15.3904 -0.753342 -10.3827 29.5117 3.2755 -0.0 0.0 -0.0 -5.46098 22.4702 -5.07629 -20.8084 -25.6578 71.8317 0.490946 -13.6692 0.0588428 -55.7282 -4.75678 4.94846 2.24263 4.26887 16.8179 -0.0 0.0 -0.0 11.9022 17.7831 -23.8495 2.73718 20.785 -70.6787 3.29231 58.4719 -1.84307 -10.7304 0.499208 -1.27586 4.51303 6.44608 -28.918 0.0 0.0 0.0 13.6273 18.9467 -1.48768 -15.9369 0.321892 2.41664 29.9799 11.5766 -3.90337 -40.1388 0.0 0.0 -0.0 0.0 -0.0 10.0149 11.0107 1.17872 -3.29056 -0.121428 -0.490329 27.4773 7.57235 3.72208 -32.7579 0.0 0.0 0.0 0.0 0.0 
2372.07018388 743.17 -1504.06555784 -21.6375811238 67.3760842814 14.5832333851 3.27519 0.354288 3.00015 3.28019 0.162751 3.0166 3.28683 -0.30327 3.00573 3.27427 0.175013 3.01591 -4.59651 11.987 -3.36193 -4.36896 24.5323 -1.45917 -0.0 0.0 -0.0 -6.01497 20.0427 -6.569 -7.00375 -26.4909 72.5249 0.613791 -16.9122 0.0912522 -52.3338 -4.34768 4.79936 3.59574 1.7249 25.5043 -0.0 0.0 -0.0 12.2608 18.4697 -24.6336 -10.9302 16.4226 -67.2422 1.31925 33.1637 -0.392847 -8.44083 0.372721 -1.01172 4.65401 12.3848 -27.0116 0.0 0.0 0.0 5.0321 21.3113 3.71893 -3.1842 0.117945 0.474378 36.0691 3.34326 -4.50408 -39.1811 0.0 0.0 -0.0 0.0 -0.0 11.3945 15.0228 3.13672 -8.99536 -0.264546 -1.35375 32.3546 11.5334 4.33165 -32.177 0.0 0.0 0.0 0.0 0.0 
2371.91725445 743.17 -1501.81681444 -21.9067630404 67.6550299066 14.8745600827 3.27519 0.354288 3.00015 3.28019 0.162751 3.0166 3.28683 -0.30327 3.00573 3.27427 0.175013 3.01591 -4.59651 11.987 -3.36193 -4.36896 24.5323 -1.45917 -0.0 0.0 -0.0 -6.01497 20.0427 -6.569 -7.00375 -26.4909 72.5249 0.613791 -16.9122 0.0912522 -52.3338 -4.34768 4.79936 3.59574 1.7249 25.5043 -0.0 0.0 -0.0 12.2608 18.4697 -24.6336 -10.9302 16.4226 -67.2422 1.31925 33.1637 -0.392847 -8.44083 0.372721 -1.01172 4.65401 12.3848 -27.0116 0.0 0.0 0.0 5.0321 21.3113 3.71893 -3.1842 0.117945 0.474378 36.0691 3.34326 -4.50408 -39.1811 0.0 0.0 -0.0 0.0 -0.0 11.3945 15.0228 3.13672 -8.99536 -0.264546 -1.35375 32.3546 11.5334 4.33165 -32.177 0.0 0.0 0.0 0.0 0.0 
